<?xml version="1.0" encoding="utf-8"?>
<!-- Generator: Adobe Illustrator 19.0.0, SVG Export Plug-In . SVG Version: 6.00 Build 0)  -->
<svg version="1.1" id="Layer_1" xmlns="http://www.w3.org/2000/svg" xmlns:xlink="http://www.w3.org/1999/xlink" x="0px" y="0px"
	 viewBox="0 0 210.7 243.3" style="enable-background:new 0 0 210.7 243.3;" xml:space="preserve">
<style type="text/css">
	.st0{fill:#C61D65;}
	.st1{fill:#F38AAD;}
	.st2{fill:#EF446B;}
	.st3{fill:#892254;}
	.st4{fill:#DB1A5F;}
	.st5{fill:url(#XMLID_28_);}
</style>
<polygon id="XMLID_525_" class="st0" points="0,60.8 105.4,0 210.7,60.8 210.7,182.5 105.4,243.3 0,182.5 "/>
<polygon id="XMLID_523_" class="st1" points="105.4,0 210.7,182.5 210.7,60.8 "/>
<polygon id="XMLID_521_" class="st2" points="210.7,60.8 0,182.5 105.4,0 "/>
<polygon id="XMLID_504_" class="st3" points="62.8,146.2 210.7,182.5 210.7,182.5 105.4,243.3 "/>
<polygon id="XMLID_500_" class="st4" points="105.4,0 0,182.5 0,60.8 "/>
<linearGradient id="XMLID_28_" gradientUnits="userSpaceOnUse" x1="105.3607" y1="194.7731" x2="105.3607" y2="59.8671">
	<stop  offset="0" style="stop-color:#DE9EC2"/>
	<stop  offset="0.2065" style="stop-color:#E5B5D0"/>
	<stop  offset="0.5641" style="stop-color:#F1DBE8"/>
	<stop  offset="0.8404" style="stop-color:#FAF3F7"/>
	<stop  offset="1" style="stop-color:#FFFFFF"/>
</linearGradient>
<polygon id="XMLID_382_" class="st5" points="155,59.9 55.7,59.9 55.7,92.1 88.6,92.1 88.6,194.8 122.3,194.8 122.3,92.1 155,92.1 
	"/>
</svg>
